<svg version="1.1" id="svg48" width="100%" height="264.4627990722656" viewBox="0 0 1133.3553 264.4628" xmlns="http://www.w3.org/2000/svg" xmlns:svg="http://www.w3.org/2000/svg">
<defs>
 <style>
    svg path {
        stroke-dasharray: 3000;
        stroke-dashoffset: 6000;
        -webkit-animation: dash 7s ease-out forwards reverse;
        -o-animation: dash 7s ease-out forwards reverse;
        -moz-animation: dash 7s ease-out forwards reverse;
        animation: dash 7s ease-out forwards reverse;
    }

    @keyframes dash {
        to {
            stroke-dashoffset: 3000;
        }
    }
 </style>
</defs>
    <path style="display: inline; fill: none; stroke: rgb(255, 255, 255); stroke-width: 15px; stroke-linecap: square; stroke-linejoin: round;" d="m 1064.4627,111.86776 v 74.44628 7.93389 3.57024 c 0,0.7048 -0.053,0.98645 -0.1097,1.58678 -0.032,0.32661 -0.013,0.72727 -0.045,1.05785 -0.152,1.58413 -0.476,2.96331 -0.7339,3.83471 -0.053,0.17852 -0.1071,0.84628 -0.5077,1.22579 -0.5898,0.55801 -1.3752,0.51438 -1.9094,0.64132 -1.21,0.28694 -2.7227,0.62149 -4.6281,0.64529 -0.4364,0.005 -0.7022,0 -1.1901,0 h -4.2314 -8.7273 -27.1074 H 876.29747 307.96692 113.19008 75.107433 56.330575 c -0.572033,0 -0.822612,0.003 -1.322314,0 -2.050645,-0.0106 -3.524628,-0.36893 -4.76033,-0.67835 -0.442975,-0.10975 -1.295339,-0.13487 -1.783802,-0.68099 -0.309554,-0.34512 -0.397884,-0.85421 -0.444033,-1.02083 -0.235504,-0.85421 -0.49719,-1.82479 -0.66076,-3.17355 -0.07722,-0.63603 -0.152463,-1.3805 -0.152727,-1.98347 -2.65e-4,-0.53686 0,-0.79603 0,-1.45455 v -2.77686 -5.95041 -45.61983 -32.46281 -36.297519 -5.818182 -2.644628 c 0,-0.820495 -0.04602,-1.403107 0.0119,-2.247933 0.122182,-1.784199 0.474182,-3.096199 0.732562,-4.099174 0.05461,-0.212099 0.173356,-0.908297 0.513058,-1.266909 0.455405,-0.480661 1.409455,-0.574678 1.783802,-0.667107 0.854479,-0.210777 1.959801,-0.427769 3.305785,-0.555901 0.333487,-0.03174 0.734016,-0.02248 1.057851,-0.02248 h 1.851239 21.157024 42.31405 238.54544 157.35536 78.54545 2.38016 c 2.10777,0 4.97851,0.01997 7.1405,0.01997 2.12099,0 4.94016,-0.01997 7.00826,-0.01997 h 2.38017 80.39669 80.39669 2.38016 c 2.10777,0 4.97851,0.01997 7.1405,0.01997 2.16198,0 5.03272,-0.01997 7.14049,-0.01997 h 2.24794 39.93388 80.26445 143.07438 28.0331 8.9917 4.3636 1.5868 c 0.324,0 0.7246,-0.0093 1.0579,0.02248 1.2707,0.120992 2.3563,0.325025 3.1735,0.523636 0.3941,0.09574 1.399,0.172827 1.916,0.623207 0.3994,0.348165 0.5805,1.478744 0.6453,1.739768 0.2936,1.173819 0.4523,2.314976 0.6506,3.966942 0.069,0.57481 0.094,1.304066 0.094,1.983471 V 68.760328 74.314047 92.56198 207.2066 M 603.90079,57.520659 v 1.586777 0.793388 0.528926 1.057851 3.173554 1.454545 2.512397 6.479338 19.570247 5.685948 2.5124 1.98347 4.76033 1.45455 0.79338 0.79339 1.45455 4.49587 1.98347 4.36363 11.3719 42.31405 M 783.60326,57.520659 v 1.586777 0.92562 1.454545 3.173554 M 385.98345,86.87603 h 0.13223 M 139.76859,111.7355 h 11.63636 1.98347 4.36364 c 0.52099,0 1.36595,-0.0352 1.85124,0.008 0.52495,0.0465 0.65322,0.17389 0.75107,0.52893 0.0912,0.32979 0.0423,1.13706 0.0423,1.57898 v 3.70247 1.45455 1.45455 1.85123 4.6281 17.19009 17.05785 5.81818 2.77686 1.05785 6.08264 c 0,0.66777 0.19438,1.69257 -0.6638,1.83141 -2.17785,0.35438 -4.79471,0.0198 -7.00562,0.0198 h -1.45454 -6.47934 c -4.35174,0 -8.75372,0.17719 -13.09091,-0.12033 -1.20516,-0.082 -2.79987,-0.0978 -3.96694,-0.14942 -0.43279,-0.0185 -0.65719,-0.0873 -1.05785,-0.11504 -0.85012,-0.0595 -1.9167,-0.16265 -2.77686,-0.25388 -3.2837,-0.35174 -5.03855,-0.51571 -7.80165,-1.29058 -0.8041,-0.22612 -1.74162,-0.53951 -2.64463,-0.90711 -1.43656,-0.58446 -2.68999,-1.16893 -3.96694,-1.9081 -2.77951,-1.60529 -5.44384,-3.84793 -7.67604,-6.36297 -1.60793,-1.81157 -3.008789,-3.81885 -4.063599,-5.81819 -0.526942,-0.99834 -1.168794,-2.37884 -1.651703,-3.57024 -1.262677,-3.11405 -1.492892,-5.2681 -1.821884,-8.19835 -0.09825,-0.87405 -0.329124,-2.93422 -0.401454,-3.83471 -0.02724,-0.33984 -0.09719,-0.5567 -0.09719,-0.92562 0,-0.36628 0.0726,-0.59372 0.09679,-0.92562 0.02935,-0.40066 0.116231,-1.26413 0.147306,-1.71901 0.179438,-2.62744 0.530777,-4.71008 0.938049,-6.47934 0.243835,-1.05917 0.687207,-2.6552 1.298513,-4.2314 0.815735,-2.10328 1.77957,-3.79227 2.935669,-5.55372 0.814413,-1.24099 1.722583,-2.48119 2.763503,-3.57025 0.45726,-0.47828 0.84205,-0.84721 1.31716,-1.32231 0.43398,-0.43399 0.72635,-0.74645 1.19008,-1.17832 1.23928,-1.15385 2.85554,-2.3639 4.23141,-3.23993 1.59233,-1.01382 3.46962,-1.95742 5.42149,-2.71048 8.15081,-2.63961 16.87687,-2.68821 25.6529,-2.65657 z m 45.61982,66.90927 v -48.79339 -9.38842 -1.19009 -1.98347 -3.70248 c 0,-0.46148 -0.12959,-1.14684 0.1362,-1.54472 0.30942,-0.46348 1.22446,-0.30652 1.71504,-0.30652 h 5.28925 1.98347 5.15703 1.19008 c 1.81157,0 4.90579,0.0422 6.7438,0.13223 0.51306,0.0251 0.73785,0.0893 1.19009,0.12047 0.85685,0.059 1.84462,0.0976 2.77685,0.22016 0.34248,0.045 0.58843,0.0431 0.92562,0.0678 0.29752,0.0217 0.47472,0.0644 0.79339,0.0985 2.42777,0.25983 4.24728,0.47167 6.08265,0.90327 1.15305,0.27121 2.27702,0.49085 3.83471,1.0765 1.24429,0.46783 2.55603,1.02572 3.57025,1.59603 1.29586,0.72846 2.43702,1.49937 3.70247,2.43174 0.66513,0.48991 1.36595,1.0195 1.98348,1.5516 0.73256,0.63074 1.0909,0.95881 1.85123,1.71901 0.64662,0.64701 0.93488,0.96291 1.47174,1.58677 0.66645,0.77435 1.33025,1.68635 1.94909,2.5124 0.81455,1.08536 1.45719,2.16423 2.10248,3.30579 0.56727,1.00376 1.10545,2.22889 1.54579,3.43801 1.21917,3.3481 1.3871,5.18744 1.81157,8.72728 0.0754,0.63735 0.21157,1.96628 0.26578,2.51239 0.0859,0.86215 0.19835,1.64364 0.23669,2.5124 0.037,0.83041 0.13753,1.91735 0.13753,2.77686 0,9.85917 0.13223,19.74876 0.13223,29.61983 M 737.98341,111.7356 h 11.63637 1.98347 4.36363 c 0.521,0 1.36595,-0.0352 1.85124,0.008 0.52496,0.0465 0.65323,0.17389 0.75108,0.52893 0.0912,0.32979 0.0423,1.13719 0.0423,1.57898 v 3.70247 1.45455 1.45455 1.85123 4.6281 17.19009 17.05785 5.81818 2.77686 1.05785 6.08264 c 0,0.66777 0.19438,1.69257 -0.6638,1.83141 -2.17785,0.35438 -4.79471,0.0198 -7.00562,0.0198 h -1.45454 -6.47934 c -4.4086,0 -8.82513,0.0661 -13.22314,-0.12694 -1.17289,-0.0516 -2.70149,-0.0926 -3.83471,-0.14281 -0.80265,-0.0357 -1.50215,-0.11636 -2.38017,-0.22083 -0.70479,-0.0846 -1.75206,-0.1719 -2.51239,-0.26578 -2.68695,-0.32926 -4.77224,-0.53157 -7.00827,-1.25752 -0.7114,-0.23141 -1.56165,-0.48132 -2.38016,-0.80397 -2.19372,-0.86479 -4.06744,-2.0033 -5.95042,-3.26479 -2.14611,-1.43868 -4.70082,-3.74479 -6.39735,-5.81818 -1.2562,-1.53389 -2.42645,-3.28331 -3.29653,-4.89257 -0.57785,-1.06975 -1.25488,-2.54677 -1.77455,-3.83471 -1.20727,-2.99239 -1.26942,-4.54611 -1.65818,-7.27272 -0.17587,-1.23372 -0.40859,-3.31769 -0.50512,-4.6281 -0.0251,-0.35041 -0.0939,-0.55405 -0.10314,-0.92562 -0.0106,-0.41917 0.0754,-0.70083 0.10314,-1.05785 0.0436,-0.53951 0.14281,-1.66347 0.22083,-2.24794 0.42181,-3.17884 0.61487,-5.02347 1.24297,-7.40495 0.19041,-0.72331 0.6043,-1.92529 0.9362,-2.77686 0.76959,-1.97448 1.7838,-3.75366 2.90116,-5.42149 0.76562,-1.14407 1.69388,-2.43808 2.64991,-3.43802 0.51835,-0.54254 0.86744,-0.87233 1.44926,-1.45454 0.51173,-0.51121 0.8238,-0.84655 1.32231,-1.31055 1.20199,-1.11921 2.58909,-2.16754 3.96694,-3.02757 0.92562,-0.57798 1.93587,-1.20119 2.9091,-1.6599 0.80132,-0.37778 1.57223,-0.73269 2.51239,-1.08033 8.46876,-2.68564 16.82492,-2.73926 25.78513,-2.70695 z m 162.77684,66.90928 v -49.58677 -8.33058 -1.58678 -1.58678 -4.09917 c 0,-0.41269 -0.13884,-1.16086 0.1362,-1.50704 0.30942,-0.39061 1.27603,-0.21197 1.71504,-0.21197 h 5.15703 1.98347 5.15702 1.19009 c 1.81157,0 4.90578,0.0422 6.7438,0.13223 1.45058,0.0711 2.63934,0.1686 4.2314,0.35888 1.5643,0.18711 3.06116,0.30704 4.6281,0.53091 2.24132,0.32013 4.2843,0.70162 6.87603,1.63438 0.47471,0.17058 0.88992,0.34803 1.32232,0.52893 1.61322,0.67411 3.10876,1.45467 4.49586,2.42657 0.99835,0.69951 1.95438,1.43405 2.9091,2.22281 0.31735,0.26169 0.61487,0.50248 0.92561,0.78281 0.47868,0.43214 0.83967,0.81706 1.32232,1.29984 0.39405,0.39339 0.69025,0.67557 1.04595,1.05785 0.32132,0.34446 0.60297,0.68919 0.90314,1.05785 1.39901,1.72073 2.34446,3.26334 3.43008,5.02479 0.71273,1.1561 1.28661,2.46387 1.79438,3.96695 1.21785,3.59801 1.46513,5.23107 1.81818,9.25619 0.14678,1.67405 0.30546,3.2529 0.4086,4.76033 0.0344,0.51174 0.1124,0.72331 0.12033,1.32232 0.0384,3.26611 0.13223,6.63405 0.13223,9.91735 v 20.6281 M 25.917354,111.86776 h 21.157023 21.157024 m 317.884279,0 v 66.77686 M 582.876,111.86776 h 9.25619 3.17356 2.1157 4.2314 1.45455 0.79339 0.79339 1.45454 4.09918 2.1157 3.17355 9.2562 m 250.84296,0 v 66.77686 M 312.99172,168.33057 c 0.18512,0.48397 0.45355,0.94281 0.80528,1.45455 0.13091,0.18909 0.18645,0.31206 0.78281,0.92562 0.57653,0.59107 2.52827,2.33124 3.4367,2.94215 1.54975,1.04198 3.49487,1.90545 5.28925,2.57057 3.36529,1.24695 5.00893,1.29058 8.85951,1.81554 0.51835,0.0714 1.83405,0.19041 2.24793,0.23141 0.75108,0.0754 0.94281,0.12033 1.85124,0.10975 0.50909,-0.007 0.74182,-0.0648 1.19008,-0.10975 0.29356,-0.0291 0.49323,-0.0238 0.79339,-0.0608 1.18744,-0.14149 2.44099,-0.29752 3.70248,-0.47339 1.72827,-0.24066 3.32959,-0.50116 4.89256,-0.97983 0.5567,-0.17058 1.22314,-0.33852 1.85124,-0.58843 2.6843,-1.06975 4.7524,-1.82347 7.00827,-3.75537 1.10677,-0.9481 1.57487,-1.4162 2.14743,-2.36298 0.26843,-0.44562 0.57389,-1.0724 0.80529,-1.85124 0.4086,-1.37256 0.64397,-2.47008 0.86612,-3.43802 0.0926,-0.4033 0.21157,-0.94809 0.3319,-1.58677 0.21157,-1.13323 -0.0793,-2.75306 -0.2605,-3.57025 -0.22082,-1.00099 -0.40462,-1.82876 -0.69686,-2.90909 -0.0939,-0.34512 -0.16396,-0.70876 -0.34247,-1.19008 -0.32265,-0.87141 -0.7881,-1.78645 -1.29191,-2.38017 -0.599,-0.70479 -1.47966,-1.5524 -2.35239,-2.14876 -2.19372,-1.50215 -3.89554,-2.27702 -6.61157,-3.24364 -2.51636,-0.89652 -4.24992,-1.11206 -7.1405,-1.54049 -1.7719,-0.26182 -2.89719,-0.48926 -4.49586,-0.76959 -0.77091,-0.13487 -2.03769,-0.29091 -2.77686,-0.42446 -0.56066,-0.10182 -0.6929,-0.18512 -1.19009,-0.27504 -0.26446,-0.0463 -0.52495,-0.0529 -0.79338,-0.0833 -0.78149,-0.0873 -1.31438,-0.24463 -2.11571,-0.35702 -1.00231,-0.14149 -2.22281,-0.36496 -3.04132,-0.5448 -0.98645,-0.21553 -2.17917,-0.48396 -3.43802,-0.96661 -2.79537,-1.06975 -4.919,-1.93587 -7.27272,-3.8757 -0.69157,-0.57124 -1.24166,-1.20331 -1.64099,-1.77058 -0.30678,-0.43636 -0.80794,-1.29454 -1.07505,-2.1157 -0.56595,-1.7362 -0.759,-2.9358 -1.04198,-4.23141 -0.18777,-0.85209 -0.46149,-2.08978 -0.26049,-3.17355 0.15074,-0.80926 0.24066,-1.23411 0.3438,-1.71901 0.19702,-0.92548 0.40859,-1.82585 0.71008,-2.90909 0.082,-0.29765 0.15074,-0.65587 0.29355,-1.05785 0.1481,-0.42036 0.33058,-0.78929 0.47075,-1.05785 0.86347,-1.64641 2.28231,-2.84734 4.31603,-4.1395 1.24165,-0.78863 3.13521,-1.64483 4.76033,-2.23458 1.5881,-0.57666 3.04264,-0.92496 4.36364,-1.17567 0.80661,-0.15313 2.199,-0.41997 3.17355,-0.53686 1.81289,-0.21765 3.75934,-0.54255 5.42149,-0.5805 0.31471,-0.007 0.50777,0.0409 0.79339,0.0604 0.32925,0.0226 0.59636,0.0245 0.92562,0.0677 0.49057,0.0645 0.95338,0.0841 1.45454,0.15234 1.87108,0.25481 3.99736,0.51834 5.42149,0.81163 1.16099,0.23921 2.02314,0.37594 3.43801,0.84298 2.18314,0.72092 4.62414,1.952 6.47934,3.25712 0.78546,0.55273 2.4,2.02195 2.9038,2.54929 0.68761,0.71894 0.74843,0.84377 0.91505,1.05785 0.31603,0.40595 0.51041,0.7926 0.67702,1.19008 m 52.36363,56.46281 c 0,-10.34314 0.082,-20.74711 0.13223,-31.07438 0.004,-0.68099 0.0807,-0.87934 0.12034,-1.45454 0.0846,-1.22182 0.19834,-2.69488 0.37157,-4.09918 0.27636,-2.25454 0.53553,-4.36231 0.89652,-5.95041 0.21422,-0.94281 0.4324,-1.89223 0.8886,-3.17355 0.55669,-1.56298 1.06182,-2.6568 1.72297,-3.96695 1.14513,-2.26856 2.83637,-4.4394 4.63339,-6.47933 1.79703,-2.04232 4.02909,-3.84873 6.17653,-5.23121 1.53521,-0.98817 3.64959,-2.04932 5.55372,-2.77408 1.08562,-0.41309 2.08529,-0.69832 2.90909,-0.89812 1.57884,-0.38281 4.00397,-0.7799 6.21488,-1.05163 1.3395,-0.1645 2.53752,-0.36523 3.96694,-0.35888 1.74016,0.008 3.35735,0.2798 5.02479,0.5116 2.81389,0.39114 4.81587,0.74129 7.80165,1.80774 1.37653,0.49137 2.51108,1.15213 3.70248,1.64747 m 31.37677,29.08663 c -0.16241,-0.4358 0.38657,-7.79738 0.52406,-8.59076 0.0952,-0.55009 0.2433,-1.34083 0.28694,-1.58678 0.1719,-0.94942 0.38215,-1.93587 0.57917,-2.90909 0.0833,-0.4086 0.14149,-0.88 0.36893,-1.58678 0.4681,-1.45216 1.47173,-2.95656 2.23339,-4.09917 0.75504,-1.1319 1.6833,-2.3762 2.6195,-3.43802 0.48793,-0.55405 0.84364,-0.88198 1.4162,-1.45454 0.48793,-0.48833 0.81983,-0.83227 1.32231,-1.26612 1.85521,-1.60278 3.70777,-2.81177 5.68595,-4.01494 1.04066,-0.63352 2.52959,-1.29706 3.83471,-1.79848 2.85356,-1.09633 4.60033,-1.3641 7.1405,-1.66823 2.05223,-0.24582 3.63768,-0.55524 5.55372,-0.60641 0.33719,-0.009 0.50115,0.0477 0.79339,0.0755 0.32396,0.0308 0.49719,0.0163 0.79338,0.045 0.39009,0.0377 0.63736,0.0844 1.05786,0.11306 4.28429,0.29249 6.62214,0.55881 10.44628,2.14995 0.98115,0.40806 2.5071,1.02519 3.30578,1.50902 1.4757,0.89322 2.89058,1.83392 4.36364,2.89362 0.62545,0.44998 0.94942,0.69197 1.58677,1.26823 2.3167,2.09256 4.14678,4.29237 5.78909,6.72132 0.63868,0.94321 1.65951,2.71538 1.95571,3.96695 0.13752,0.58036 0.24727,1.09884 0.32132,1.45454 0.19438,0.94149 0.37421,1.84198 0.55537,2.77686 0.0397,0.21025 0.17587,1.01289 0.2486,1.45455 0.11107,0.66909 0.14413,0.86347 0.17586,1.05785 0.10976,0.65058 0.20232,1.26281 0.30678,1.98347 0.0317,0.21686 0.1005,0.72992 0.22347,1.58678 0.45752,3.18677 0.41785,3.17223 0.20496,3.56231 -0.074,0.13752 -0.0436,0.45223 -0.92165,0.52892 -0.4324,0.0384 -1.36728,0.008 -1.85124,0.008 h -5.15703 -1.32231 -4.09917 -8.33058 -20.76033 -9.38843 -3.43802 -1.45454 -2.77686 c -2.71616,-0.34224 -4.30041,-0.23471 -4.30041,-0.23471 -0.15897,1.77118 0.32415,6.89317 0.45514,7.77189 0.0278,0.1719 0.0648,0.39669 0.17587,1.05785 0.0714,0.43107 0.22744,1.37124 0.26446,1.58678 0.16397,0.94281 0.3795,1.93586 0.57521,2.90909 0.0714,0.35702 0.14413,0.82777 0.33057,1.45454 0.2724,0.91901 0.85554,1.8962 1.2681,2.64463 0.67571,1.22711 1.37389,2.38281 2.27571,3.57025 0.41124,0.54215 0.88859,1.09487 1.34743,1.58678 0.60959,0.65454 1.13191,1.18479 1.84067,1.86314 0.33983,0.32396 0.58446,0.58578 0.92429,0.90181 0.5686,0.53025 1.22447,1.08827 1.85124,1.56695 1.04463,0.8 2.22546,1.55371 3.30579,2.1633 1.04066,0.58843 2.72793,1.44661 3.96694,1.86843 1.60793,0.54876 3.34545,1.06711 4.6281,1.35537 1.51405,0.33984 3.35735,0.51438 5.55372,0.74976 1.09487,0.11636 2.09322,0.25652 3.30578,0.24198 0.45884,-0.007 0.65587,-0.0463 1.05785,-0.0939 0.31207,-0.0383 0.49587,-0.0304 0.79339,-0.0608 0.97455,-0.0978 1.70446,-0.19703 2.77686,-0.33719 2.98711,-0.38876 4.53686,-0.68496 7.66942,-1.7005 1.45322,-0.47074 2.73455,-1.11735 3.96694,-1.77454 m 493.48754,-0.13223 c -0.4615,0.24462 -0.9349,0.53289 -1.5868,0.82909 -0.7153,0.32661 -1.6767,0.75107 -2.5124,1.07636 -1.3646,0.53025 -2.675,0.79339 -3.7024,1.03405 -1.5881,0.37421 -3.8599,0.69818 -6.0827,0.90446 -1.0988,0.10314 -7.04,-0.12032 -7.9339,-0.23668 -2.7464,-0.35703 -4.8581,-0.82116 -8.0661,-1.8724 -1.4479,-0.47471 -2.8919,-1.22975 -4.0992,-1.92793 -2.92093,-1.69256 -6.23729,-4.42314 -8.46274,-7.2119 -1.27339,-1.59736 -2.33785,-3.19075 -3.28728,-4.89257 -0.50512,-0.90446 -1.26809,-2.36033 -1.63173,-3.43801 -1.15438,-3.41818 -1.60926,-5.43603 -1.96364,-8.59504 -0.0648,-0.57389 -0.20363,-1.62248 -0.25785,-2.24794 -0.0278,-0.32529 -0.078,-0.58975 -0.10975,-0.92562 -0.0291,-0.29752 -0.0132,-0.47471 -0.0344,-0.79338 -0.0503,-0.76298 -0.0436,-1.45719 0.0503,-2.24794 0.0793,-0.67041 0.14677,-1.23504 0.21686,-1.98347 0.17058,-1.84463 0.51438,-3.85454 0.78677,-5.15702 0.27637,-1.31967 0.47604,-2.29157 1.15042,-4.09918 0.45091,-1.21309 1.06314,-2.58221 1.60264,-3.57025 1.06711,-1.95636 2.38546,-3.82995 3.9524,-5.68595 1.82876,-2.16568 4.33587,-4.37117 6.66578,-5.84304 1.59332,-1.00641 3.58742,-2.02221 5.42142,-2.78942 1.7561,-0.73454 3.2318,-1.05639 4.4959,-1.32258 1.5643,-0.32925 3.9762,-0.69196 6.2149,-0.88793 0.3477,-0.0304 3.676,-0.12895 3.9669,-0.0945 0.9679,0.11451 1.8393,0.21038 2.9091,0.33838 1.354,0.16211 3.0585,0.44972 4.0992,0.66578 1.2271,0.25508 2.1646,0.37792 3.8347,1.03802 1.6251,0.64198 2.8668,1.30525 4.3636,1.88694 m -225.46823,27.83988 31.53514,31.86379 m -52.57909,-10.67026 21.04395,-21.19353 30.04754,-30.04754 M 783.60326,64.661155 V 179.26717" id="path992" class="svg-elem-1"></path>
</svg>

