<svg id="tsvg" width="652" height="180" version="1.1" viewBox="0 0 652 180"
xmlns="http://www.w3.org/2000/svg">

<defs>
 <style>
    svg path {
        stroke-dasharray: 3000;
        stroke-dashoffset: 3000;
        -webkit-animation: dash 7s ease-out forwards;
        -o-animation: dash 7s ease-out forwards;
        -moz-animation: dash 7s ease-out forwards;
        animation: dash 7s ease-out forwards;

    }

    svg {
        fill-opacity: 0;
        -webkit-animation: fill-in 1.4s 1.5s ease-in forwards;
        -o-animation: fill-in 1.4s 1.5s ease-in forwards;
        -moz-animation: fill-in 1.4s 1.5s ease-in forwards;
        animation: fill-in 1.4s 1.5s ease-in forwards;
    }


    @keyframes dash {
        to {
            stroke-dashoffset: 0;
        }
    }

    @keyframes fill-in {
        to {
            fill-opacity: 1;
        }
    }
 </style>
</defs>

<path id="tlogo" d="m313.24
179.04c-9.196-1.1543-17.49-5.1604-21.297-10.287-2.6624-3.5851-4.0171-7.3626-4.2584-11.874-0.2076-3.8812
0.19776-6.6334 1.5978-10.848 2.0816-6.2664 5.7592-11.889 11.657-17.824 5.7942-5.8301 10.975-9.5479
17.933-12.87 3.9016-1.8627 9.6867-3.989 10-3.6756 0.20688 0.20689 3.1873 11.056 3.0622 11.147-0.0522
0.0379-1.1748 0.44061-2.4948 0.89493-12.05 4.1472-22.985 13.3-27.921 23.371-3.5597 7.2619-2.7566
13.303 2.2063 16.598 4.4211 2.9346 12.594 4.4402 20.165 3.7149 7.4222-0.71095 14.1-2.6452
21.21-6.1438 7.4407-3.6613 13.34-8.0112 17.572-12.958 3.8224-4.467 5.6282-8.1613 6.1939-12.672
0.38175-3.0439-0.0318-5.3654-1.4855-8.3402-1.9775-4.0464-5.9947-7.9419-15.833-15.354-10.165-7.6575-16.824-13.66-20.35-18.341-2.4905-3.307-4.7045-7.7872-5.7076-11.55-0.69792-2.6178-0.79965-3.5733-0.79869-7.5
0-3.675 0.11973-4.9336 0.64803-6.8653 2.4104-8.8135 8.7343-17.216 19.403-25.782 15.342-12.318
38.53-22.573 57.141-25.271 4.7709-0.69157 12.117-0.47617 15.307 0.44885 8.1577 2.3654 13.643 7.4347
15.783 14.585 0.80412 2.6875 0.72933 7.9023-0.16329 11.384-2.94 11.469-12.481 23.268-27.23
33.677-2.6016 1.836-9.7976 6.3729-10.108 6.3729-0.12162 0-5.5811-10.081-5.5811-10.305 0-0.0695
0.97875-0.70464 2.175-1.4115 10.893-6.4368 19.832-14.353 25.049-22.183 3.1949-4.7952 4.6608-8.6015
4.6795-12.15
0.0183-3.4615-1.5601-5.701-5.2938-7.5116-2.7077-1.313-5.5524-1.7693-9.4566-1.5169-18.577
1.201-45.991 13.896-60.894 28.2-5.0122 4.8106-8.9416 11.164-9.712 15.704-0.67731 3.9911 0.56502
8.9346 3.2765 13.038 3.1562 4.7764 7.2873 8.6503 17.27 16.195 13.359 10.096 17.895 14.638 21.066
21.092 2.0318 4.1355 2.6132 6.7108 2.6079 11.55-4e-3 3.3836-0.13293 4.5436-0.78495 7.05-3.1062
11.94-14.184 23.564-29.733 31.198-7.624 3.7434-14.596 5.9221-22.003 6.8753-3.9692 0.51086-11.377
0.579-14.897
0.13705zm-303.66-13.579c-3.2327-1.0527-6.1055-3.6791-7.6724-7.0144-0.82602-1.7582-0.9625-2.4083-1.0636-5.0661-0.0966-2.5396-7e-3
-3.3767 0.53642-5.0095 0.92525-2.7804 9.4641-16.013 36.615-56.741 24.393-36.59 43.498-65.8
43.498-66.502 0-0.16994-1.1137-0.21751-2.775-0.11852-3.725 0.22194-45.303 0.89715-45.732
0.74266-0.18601-0.06699 5.9306-5.5403 13.592-12.163l13.931-12.041 8.1672-0.18087c14.127-0.31285
76.449-0.85506 76.637-0.66675 0.18726 0.18726-0.40229 18.915-0.70687 22.455l-0.17425
2.025h-44.246l-4.4551 8.025c-4.3156 7.7737-21.201 37.366-41.383 72.525-11.098 19.335-20.336
35.704-26.497 46.95-4.8017 8.7661-6.149 10.516-9.2849 12.06-1.7508 0.8619-2.3048 0.98219-4.8502
1.0531-1.8312
0.051-3.3322-0.0693-4.1378-0.33162zm443.91-6.7616c-2.0636-0.62772-4.1846-2.4399-5.29-4.5197-0.85845-1.6152-0.76191-6.6831
0.17718-9.3 1.5698-4.3744 4.7632-10.024 10.09-17.85 4.3096-6.3315 6.4315-10.916
6.4179-13.866-0.0144-3.1113-1.8666-5.4625-6.8665-8.7158-5.5866-3.6351-7.5606-6.1754-8.5777-11.038-0.5919-2.8302-0.43635-4.881
0.60183-7.9334 0.7848-2.3074 2.86-6.4607 3.2192-6.2968 7.3695 3.3619 9.0341 5.7654 9.6114 6.2849
0.12743 0.11467-0.0564 0.8598-0.40851 1.6558-1.7707 4.003 0.47754 7.5152 7.0081 10.948 4.0488 2.1284
4.1788 2.2675 5.7234 6.1274 2.0964 5.2387 2.3122 7.8038 1.1084 13.175-1.0158 4.5325-3.9714
10.479-8.6782 17.458-3.8034 5.6403-6.3814 9.8036-6.1894 9.9955 0.37983 0.37985 12.061-8.6606
18.154-14.051 9.4024-8.3167 23.197-22.362 28.43-28.945 6.0368-7.5951 14.05-14.677 20.17-17.826
4.2008-2.1617 6.7177-2.8589 10.35-2.8671 3.7069-8e-3 5.3047 0.53456 7.0063 2.3806 1.58 1.7141 2.1452
3.6546 2.1385 7.3422-8e-3 4.6844-1.2553 9.3577-4.0474 15.171-2.0944 4.3604-4.7321 8.0341-8.4
11.699-4.7801 4.7768-8.2346 6.3163-14.097
6.2826-3.115-0.0179-5.9602-0.8741-8.8669-2.6682-0.94794-0.58511-1.8129-1.0638-1.9221-1.0638-0.336
0-1.9125 3.7327-2.5536 6.0461-0.67917 2.4509-0.7977 5.9116-0.25635 7.4842 1.5854 4.6053 5.7068 6.066
12.309 4.3626 10.041-2.5904 22.745-10.042 38.14-22.372 9.7859-7.8374 9.773-7.8222 24.329-28.606
7.024-10.03 12.771-18.358 12.771-18.507 0-0.15413-1.5849-0.21132-3.675-0.13259-5.2404 0.19737-31.2
0.72477-35.675 0.72477h-3.7607l-0.16626-5.6248c-0.0932-3.1526-0.0493-5.6971 0.0998-5.7893
0.14634-0.0905 8.1998-0.33214 17.897-0.53709 9.6968-0.20496 21.304-0.45628
25.793-0.55851l8.1623-0.18587 8.0143-11.427c4.4079-6.285 8.0498-11.475 8.0932-11.533 0.0433-0.05801
2.2427 1.4099 4.8874 3.2619l4.8085 3.3674-0.95367 1.3881c-0.52449 0.76345-3.0274 4.346-5.562
7.9612l-4.6084 6.5731 10.448-0.20078c5.7464-0.11042 13.114-0.28804
16.373-0.3947l5.925-0.19393v11.793l-1.125-7e-3c-0.61875-4e-3 -9.8325 0.21432-20.475 0.48462-13.415
0.34071-19.457 0.59587-19.699 0.83184-0.88107 0.86033-41.263 58.637-43.117 61.69-3.9319
6.4745-5.6985 11.053-5.524 14.317 0.11742 2.1971 0.47073 2.4176 3.1486 1.9651 5.4559-0.9219
14.419-7.1744 26.641-18.585 6.4815-6.0512 15.955-15.862 21-21.747l1.2-1.3999 8.209 6.1294-2.3819
3.1352c-7.8061 10.275-19.965 22.803-31.407 32.36-6.7329 5.6239-11.918 8.7774-17.62 10.717-3.0348
1.0323-3.5772 1.124-6.75 1.1402-2.6177
0.0134-3.8695-0.11997-5.1887-0.55275-3.6362-1.1928-6.5228-4.0404-7.785-7.6796-0.93135-2.6853-0.92535-8.6455
0.012-11.992 0.34542-1.233 0.59556-2.2742 0.5559-2.3139-0.0397-0.0397-1.0784 0.60526-2.3082
1.4332-13.198 8.885-24.9 13.526-34.036
13.501-5.8919-0.0166-9.3925-1.4081-13.211-5.2514-3.1729-3.1936-5.2793-7.3448-5.752-11.336l-0.16947-1.4311-2.9974
2.77c-7.0269 6.4937-15.5 13.504-20.718 17.141-3.4859 2.4297-8.4498 5.0455-11.109 5.854-2.0952
0.63704-5.5785 0.80641-7.0954 0.34501zm70.072-47.268c3.1112-0.94244 6.5556-4.7029 9.2924-10.145
1.5654-3.113 3.0727-7.2711 2.7519-7.5918-0.2937-0.29371-4.3022 1.9401-6.8247 3.8033-2.8156
2.0797-7.5882 6.7668-10.313 10.128-2.049 2.5279-2.0086 2.7211 0.77016 3.6807 1.9656 0.67883 2.4482
0.69277 4.323 0.12485zm-380.32 37.466c-2.3666-1.9152-4.353-3.5291-4.4142-3.5863s1.0659-2.0093
2.5048-4.338c1.4388-2.3286 2.5663-4.2837 2.5055-4.3445s-1.053 0.49778-2.2048 1.2413c-9.1253
5.8907-16.429 7.6002-21.619 5.0606-2.7965-1.3682-4.925-4.5034-4.925-7.2543
0-0.54811-0.10607-0.99656-0.2357-0.99656-0.12964 0-1.5134 1.0955-3.075 2.4345-12.328 10.57-21.067
14.795-28.475
13.766-2.8316-0.39351-5.5498-1.6419-7.4547-3.4236-3.0302-2.8344-4.1434-6.5704-3.282-11.014
1.4063-7.2549 11.201-21.872 22.263-33.224 11.061-11.35 21.581-18.323 31.599-20.941 5.5903-1.4612
11.92-0.93984 16.469 1.3566 2.6855 1.3556 6.8414 4.8685 6.8414 5.7829 0 0.17477-1.956 1.912-4.3468
3.8606l-4.3468 3.5428-1.1147-1.0071c-2.2539-2.0362-3.3056-2.3848-7.1418-2.3672-3.1255 0.0144-3.6861
0.10531-5.9606 0.96705-7.0792 2.6821-14.403 7.8514-22.408 15.817-6.8498 6.8159-12.594 14.1-17.031
21.597-2.0984 3.5457-3.6935 6.9598-3.3924 7.261 0.0848 0.0848 0.88659 0.14538 1.7818 0.13469
6.0068-0.0718 16.238-8.1264 42.329-33.322l5.9692-5.7645 1.6808 1.604c0.92443 0.88218 2.8487 2.7176
4.2761 4.0787l2.5953 2.4747-1.8672 2.3182c-6.7636 8.3971-11.77 16.05-13.257 20.263l-0.41237 1.1688
0.82299-0.20105c1.3974-0.34138 6.6812-2.9722 9.5903-4.7749 5.857-3.6296 10.977-7.6167 17.842-13.896
6.7528-6.1758 7.4422-7.0139 12.366-15.033 2.4518-3.9928 4.5651-7.2596 4.6962-7.2596 0.32357 0 9.6563
5.8142 9.6963 6.0407 0.0174 0.0989-2.027 3.5039-4.5433 7.5667s-4.575 7.4605-4.575 7.5507c0 0.0901
1.7888-1.4133 3.975-3.341 16.165-14.253 31.562-23.843 44.025-27.42 3.2155-0.92296 8.5841-1.1472
10.956-0.45769 2.4894 0.72368 3.6963 1.3996 5.1809 2.9016 2.9022 2.9362 3.7962 7.4539 2.4872
12.568-1.4355 5.6075-5.861 13.216-13.075 22.479-8.6637 11.125-13.949 18.57-13.949 19.648 0 0.45304
1.8928 0.0512 3.9-0.82793 3.3938-1.4865 8.1482-4.3007 15.3-9.0563 11.359-7.5531 19.686-14.148
25.891-20.506l3.5415-3.6284 4.027 3.0235c3.7342 2.8037 4.0022 3.0703 3.6857 3.6666-0.6045
1.1391-10.457 10.747-15.096 14.721-18.361 15.731-33.963 24.393-42.871
23.804-2.9776-0.19704-4.9167-1.1106-6.8967-3.2493-1.9696-2.1274-2.5822-3.7656-2.5822-6.9047 0-5.92
3.4529-12.13 14.834-26.678 6.7714-8.6557 10.493-14.574 11.683-18.582 0.26577-0.89495 0.48321-1.7558
0.48321-1.913 0-0.52729-4.0057-9e-4 -6.4446 0.84667-4.9101 1.7067-11.534 5.1292-17.555 9.071-11.273
7.3791-21.491 16.328-49.035 42.944-4.117 3.9782-7.5806 7.233-7.6971
7.233s-2.1481-1.567-4.5146-3.4822zm251.21
0.65944c-3.4911-1.1395-6.197-4.7204-6.5679-8.6918-0.4122-4.4143 2.0278-10.241 7.6268-18.213
5.776-8.2238 14.45-20.067 19.424-26.523 2.67-3.465 5.5566-7.2713 6.4147-8.4585l1.5602-2.1585 4.6397
3.3151c2.5519 1.8233 4.6969 3.4076 4.7667 3.5206 0.0699 0.11303-2.3091 3.3726-5.2865 7.2435-11.802
15.344-24.447 33.07-26.42 37.038-0.86292 1.7351-0.92379 2.25-0.2661 2.25 0.96096 0 7.3268-3.3444
12.111-6.3626 13.225-8.3436 24.245-16.73 31.453-23.935l3.7711-3.7698 3.8789 2.9177c2.1334 1.6048
3.8789 3.064 3.8789 3.2429 0 1.0378-9.0853 10.044-17.25 17.099-11.563 9.9927-24.966 18.432-33.15
20.874-3.3017 0.98518-8.5142 1.2858-10.583
0.61045zm41.021-63.507c-1.222-2.8274-2.3991-5.2088-2.6159-5.292-0.21678-0.0832-2.9496-0.0336-6.0729
0.11024-4.1997 0.19338-5.5837 0.17387-5.3135-0.0749 0.44436-0.4093 8.557-7.4817 8.557-7.4817 0.0408
0.0467-0.85773-2.536-2.0182-5.5554s-2.0793-5.5203-2.0418-5.5573 2.3398 1.281 5.1161 2.929l5.0479
2.9963 4.4985-3.6508c2.4742-2.0079 4.5484-3.601 4.6093-3.5401s-0.41769 2.47-1.0635 5.3536c-0.64584
2.8836-1.1737 5.4453-1.173 5.6928 0 0.25297 2.1552 1.8292 4.9206 3.6l4.9194 3.15-1.2536
0.1864c-0.68946 0.10252-3.327 0.36471-5.8612 0.58266-4.17 0.35862-4.6319 0.45491-4.8623
1.0136-0.14007 0.33954-0.82173 2.7773-1.5148 5.4173-0.69309 2.64-1.3493 4.9038-1.4582 5.0305-0.10893
0.1268-1.1978-2.0828-2.4198-4.9102z" style="fill:#f4d7d7;stroke-linecap:square;stroke-width:1.2;stroke:#f4d7d7"/></svg>
